<svg width="64" height="64" viewBox="0 0 160 160" fill="none" xmlns="http://www.w3.org/2000/svg">
  <rect width="160" height="160" rx="4" fill="#090909"/>
  <path d="M80 18L132 48V111L80 142L28 111V48L80 18Z" stroke="#F69D09" stroke-width="7" stroke-linejoin="round"/>
  <path d="M54 100C61 112 74 119 89 116C103 113 112 104 112 91C112 76 100 70 83 66C68 63 59 60 59 50C59 41 67 35 79 35C91 35 101 41 108 52" stroke="#E2E2E2" stroke-width="10" stroke-linecap="round"/>
  <path d="M50 108C58 122 73 130 91 126C109 122 121 109 121 91C121 72 107 62 86 58" stroke="#2DBFE8" stroke-width="3" stroke-linecap="round" opacity="0.88"/>
</svg>
