<svg width="1400" height="900" viewBox="0 0 1400 900" fill="none" xmlns="http://www.w3.org/2000/svg" role="img" aria-labelledby="title">
  <title id="title">Abstract realtime 3D world with nodes, grid and architecture blocks</title>
  <rect width="1400" height="900" fill="#07080D"/>
  <path d="M0 610C260 520 452 525 640 610C842 701 1075 740 1400 622V900H0V610Z" fill="url(#floor)"/>
  <g opacity="0.45">
    <path d="M120 730H1290" stroke="#38BDF8" stroke-opacity="0.22"/>
    <path d="M185 660H1210" stroke="#38BDF8" stroke-opacity="0.18"/>
    <path d="M250 594H1138" stroke="#38BDF8" stroke-opacity="0.16"/>
    <path d="M320 532H1068" stroke="#38BDF8" stroke-opacity="0.12"/>
    <path d="M95 894L655 245" stroke="#38BDF8" stroke-opacity="0.13"/>
    <path d="M280 900L716 239" stroke="#38BDF8" stroke-opacity="0.12"/>
    <path d="M520 900L790 240" stroke="#38BDF8" stroke-opacity="0.12"/>
    <path d="M780 900L864 240" stroke="#38BDF8" stroke-opacity="0.12"/>
    <path d="M1060 900L936 240" stroke="#38BDF8" stroke-opacity="0.12"/>
    <path d="M1305 900L1015 240" stroke="#38BDF8" stroke-opacity="0.12"/>
  </g>
  <g transform="translate(780 250)">
    <path d="M0 220L190 120L388 220L190 330L0 220Z" fill="#0B0F19" stroke="#D7A84F" stroke-width="3"/>
    <path d="M68 218L190 154L312 218L190 287L68 218Z" fill="#111827" stroke="#38BDF8" stroke-opacity="0.7"/>
    <path d="M190 154V288" stroke="#38BDF8" stroke-opacity="0.45"/>
    <path d="M69 218H312" stroke="#38BDF8" stroke-opacity="0.35"/>
    <rect x="150" y="40" width="78" height="114" fill="#101827" stroke="#D7A84F" stroke-opacity="0.75"/>
    <rect x="238" y="82" width="64" height="136" fill="#101827" stroke="#38BDF8" stroke-opacity="0.55"/>
    <rect x="82" y="96" width="58" height="122" fill="#101827" stroke="#F59E0B" stroke-opacity="0.55"/>
  </g>
  <g stroke="#D7A84F" stroke-width="2" opacity="0.78">
    <path d="M210 250C310 154 462 136 590 204C676 249 747 252 840 210"/>
    <circle cx="210" cy="250" r="8" fill="#D7A84F"/>
    <circle cx="590" cy="204" r="7" fill="#38BDF8"/>
    <circle cx="840" cy="210" r="8" fill="#D7A84F"/>
  </g>
  <g transform="translate(210 360)" stroke="#F5F5F0" stroke-opacity="0.62">
    <path d="M0 68L118 0L236 68L118 136L0 68Z" fill="#111827" fill-opacity="0.8"/>
    <path d="M118 0V136"/>
    <path d="M0 68H236"/>
    <path d="M52 70L118 33L184 70L118 108L52 70Z" stroke="#38BDF8" stroke-opacity="0.8"/>
  </g>
  <defs>
    <linearGradient id="floor" x1="700" y1="517" x2="700" y2="900" gradientUnits="userSpaceOnUse">
      <stop stop-color="#111827" stop-opacity="0.76"/>
      <stop offset="1" stop-color="#07080D"/>
    </linearGradient>
  </defs>
</svg>
